<svg width="24" height="24" viewBox="0 0 24 24" fill="none" xmlns="http://www.w3.org/2000/svg">
<path fill-rule="evenodd" clip-rule="evenodd" d="M11.2794 1.18994L11.8445 2.2503C11.9109 2.37487 12.0894 2.37487 12.1558 2.2503L12.7209 1.18994C14.8134 1.53397 16.4097 3.35099 16.4097 5.54084C16.4097 5.98615 16.3437 6.41605 16.2209 6.82127C16.5281 6.62607 16.8645 6.46599 17.2267 6.34833C19.3093 5.67163 21.5307 6.62831 22.5045 8.51202L21.6707 9.37711C21.5727 9.47874 21.6279 9.64854 21.7669 9.67318L22.95 9.88296C23.2694 11.9793 22.0346 14.059 19.9519 14.7357C19.5924 14.8525 19.2287 14.9207 18.8681 14.9438C19.176 15.1877 19.4562 15.4772 19.6984 15.8106C20.9856 17.5822 20.7621 19.9905 19.2715 21.4987L18.1911 20.973C18.0641 20.9113 17.9197 21.0162 17.9392 21.156L18.1053 22.3461C16.2102 23.2976 13.8508 22.7659 12.5636 20.9943C12.3051 20.6384 12.1075 20.2568 11.9689 19.862C11.8302 20.2569 11.6326 20.6386 11.3739 20.9946C10.0868 22.7662 7.72734 23.2979 5.8323 22.3464L5.99838 21.1564C6.01789 21.0166 5.87345 20.9116 5.74653 20.9734L4.66609 21.4991C3.17546 19.9908 2.95203 17.5825 4.2392 15.8109C4.48286 15.4755 4.76494 15.1846 5.07502 14.9398C4.73304 14.9134 4.38871 14.8464 4.04809 14.7357C1.96541 14.059 0.730606 11.9793 1.05003 9.88297L2.23312 9.6732C2.3721 9.64855 2.42727 9.47875 2.32932 9.37712L1.49549 8.51201C2.46929 6.62829 4.69065 5.67161 6.77332 6.34831C7.13562 6.46603 7.47226 6.6262 7.77952 6.82153C7.6567 6.41623 7.59066 5.98625 7.59066 5.54084C7.59066 3.35099 9.18696 1.53397 11.2794 1.18994ZM12.7056 8.89212C12.7056 9.18817 12.5233 9.44164 12.2648 9.54632V10.4953C12.9843 10.5813 13.5974 11.014 13.9323 11.6215L14.734 11.361C14.7342 10.9716 15.05 10.6559 15.4395 10.6559C15.8292 10.6559 16.1451 10.9718 16.1451 11.3614C16.1451 11.7511 15.8292 12.067 15.4395 12.067C15.2408 12.067 15.0613 11.9848 14.9331 11.8527L14.1303 12.1135C14.1789 12.2956 14.2049 12.4869 14.2049 12.6843C14.2049 13.2757 13.972 13.8128 13.5929 14.2087L13.9847 14.748C14.054 14.7252 14.128 14.7129 14.2048 14.7129C14.5945 14.7129 14.9103 15.0288 14.9103 15.4185C14.9103 15.8081 14.5945 16.124 14.2048 16.124C13.8152 16.124 13.4993 15.8081 13.4993 15.4185C13.4993 15.3002 13.5284 15.1888 13.5798 15.0909L13.1832 14.545C12.8414 14.7629 12.4355 14.8891 12.0001 14.8891C11.5647 14.8891 11.1588 14.7629 10.817 14.545L10.4204 15.0909C10.4718 15.1888 10.5009 15.3002 10.5009 15.4185C10.5009 15.8081 10.185 16.124 9.79539 16.124C9.40574 16.124 9.08987 15.8081 9.08987 15.4185C9.08987 15.0288 9.40574 14.7129 9.79539 14.7129C9.87224 14.7129 9.94622 14.7252 10.0155 14.748L10.4073 14.2087C10.0282 13.8127 9.79535 13.2757 9.79535 12.6843C9.79535 12.4871 9.82125 12.2959 9.86984 12.1139L9.06678 11.853C8.93857 11.985 8.75921 12.067 8.56069 12.067C8.17104 12.067 7.85516 11.7511 7.85516 11.3614C7.85516 10.9718 8.17104 10.6559 8.56069 10.6559C8.95033 10.6559 9.2662 10.9718 9.26621 11.3614L10.0677 11.6219C10.4026 11.0141 11.0159 10.5813 11.7356 10.4952V9.54639C11.477 9.44175 11.2946 9.18824 11.2946 8.89212C11.2946 8.50247 11.6105 8.1866 12.0001 8.1866C12.3898 8.1866 12.7056 8.50247 12.7056 8.89212Z" fill="#FF80B5"/>
</svg>
