<svg width="24" height="24" viewBox="0 0 24 24" fill="none" xmlns="http://www.w3.org/2000/svg">
<path fill-rule="evenodd" clip-rule="evenodd" d="M12 1C5.9247 1 1 5.9324 1 12.0187C1 16.8862 4.1515 21.0167 8.5229 22.4731C9.0729 22.5743 9.2731 22.2344 9.2731 21.9418C9.2731 21.6811 9.2643 20.987 9.2588 20.0685C6.1986 20.734 5.5529 18.5912 5.5529 18.5912C5.0535 17.3174 4.3319 16.9786 4.3319 16.9786C3.3331 16.2966 4.4078 16.3098 4.4078 16.3098C5.5111 16.3868 6.0919 17.445 6.0919 17.445C7.0731 19.128 8.667 18.6418 9.2929 18.3602C9.3941 17.6485 9.6779 17.1634 9.9925 16.8884C7.5505 16.6101 4.982 15.6641 4.982 11.4423C4.982 10.24 5.411 9.2555 6.1139 8.4855C6.0006 8.2072 5.6233 7.0863 6.2217 5.5705C6.2217 5.5705 7.1457 5.2735 9.2467 6.6991C10.144 6.45437 11.0699 6.32971 12 6.3284C12.935 6.3328 13.8755 6.4549 14.7544 6.6991C16.8543 5.2735 17.7761 5.5694 17.7761 5.5694C18.3767 7.0863 17.9983 8.2072 17.8861 8.4855C18.5901 9.2555 19.0169 10.24 19.0169 11.4423C19.0169 15.6751 16.444 16.6068 13.9943 16.8796C14.3892 17.2195 14.7401 17.8916 14.7401 18.9201C14.7401 20.3919 14.7269 21.581 14.7269 21.9418C14.7269 22.2366 14.9249 22.5798 15.4837 22.472C17.6741 21.7373 19.5783 20.3328 20.927 18.4571C22.2758 16.5813 23.0009 14.329 23 12.0187C23 5.9324 18.0742 1 12 1Z" fill="#101828"/>
</svg>
