<svg width="24" height="24" viewBox="0 0 24 24" fill="none" xmlns="http://www.w3.org/2000/svg">
<path d="M12 2.98086C14.9391 2.98086 15.2871 2.99375 16.443 3.04531C17.5172 3.09258 18.0973 3.27305 18.484 3.42344C18.9953 3.62109 19.3648 3.86172 19.7473 4.24414C20.134 4.63086 20.3703 4.99609 20.568 5.50742C20.7184 5.89414 20.8988 6.47852 20.9461 7.54844C20.9977 8.70859 21.0106 9.05664 21.0106 11.9914C21.0106 14.9305 20.9977 15.2785 20.9461 16.4344C20.8988 17.5086 20.7184 18.0887 20.568 18.4754C20.3703 18.9867 20.1297 19.3563 19.7473 19.7387C19.3605 20.1254 18.9953 20.3617 18.484 20.5594C18.0973 20.7098 17.5129 20.8902 16.443 20.9375C15.2828 20.9891 14.9348 21.002 12 21.002C9.06094 21.002 8.71289 20.9891 7.55703 20.9375C6.48281 20.8902 5.90274 20.7098 5.51602 20.5594C5.00469 20.3617 4.63516 20.1211 4.25273 19.7387C3.86602 19.352 3.62969 18.9867 3.43203 18.4754C3.28164 18.0887 3.10117 17.5043 3.05391 16.4344C3.00234 15.2742 2.98945 14.9262 2.98945 11.9914C2.98945 9.05234 3.00234 8.7043 3.05391 7.54844C3.10117 6.47422 3.28164 5.89414 3.43203 5.50742C3.62969 4.99609 3.87031 4.62656 4.25273 4.24414C4.63945 3.85742 5.00469 3.62109 5.51602 3.42344C5.90274 3.27305 6.48711 3.09258 7.55703 3.04531C8.71289 2.99375 9.06094 2.98086 12 2.98086ZM12 1C9.01367 1 8.63984 1.01289 7.4668 1.06445C6.29805 1.11602 5.49453 1.30508 4.79844 1.57578C4.07227 1.85938 3.45781 2.2332 2.84766 2.84766C2.2332 3.45781 1.85938 4.07227 1.57578 4.79414C1.30508 5.49453 1.11602 6.29375 1.06445 7.4625C1.01289 8.63984 1 9.01367 1 12C1 14.9863 1.01289 15.3602 1.06445 16.5332C1.11602 17.702 1.30508 18.5055 1.57578 19.2016C1.85938 19.9277 2.2332 20.5422 2.84766 21.1523C3.45781 21.7625 4.07227 22.1406 4.79414 22.4199C5.49453 22.6906 6.29375 22.8797 7.4625 22.9313C8.63555 22.9828 9.00938 22.9957 11.9957 22.9957C14.982 22.9957 15.3559 22.9828 16.5289 22.9313C17.6977 22.8797 18.5012 22.6906 19.1973 22.4199C19.9191 22.1406 20.5336 21.7625 21.1438 21.1523C21.7539 20.5422 22.132 19.9277 22.4113 19.2059C22.682 18.5055 22.8711 17.7063 22.9227 16.5375C22.9742 15.3645 22.9871 14.9906 22.9871 12.0043C22.9871 9.01797 22.9742 8.64414 22.9227 7.47109C22.8711 6.30234 22.682 5.49883 22.4113 4.80273C22.1406 4.07227 21.7668 3.45781 21.1523 2.84766C20.5422 2.2375 19.9277 1.85938 19.2059 1.58008C18.5055 1.30938 17.7063 1.12031 16.5375 1.06875C15.3602 1.01289 14.9863 1 12 1Z" fill="#101828"/>
<path d="M12 6.34961C8.88047 6.34961 6.34961 8.88047 6.34961 12C6.34961 15.1195 8.88047 17.6504 12 17.6504C15.1195 17.6504 17.6504 15.1195 17.6504 12C17.6504 8.88047 15.1195 6.34961 12 6.34961ZM12 15.6652C9.97617 15.6652 8.33477 14.0238 8.33477 12C8.33477 9.97617 9.97617 8.33477 12 8.33477C14.0238 8.33477 15.6652 9.97617 15.6652 12C15.6652 14.0238 14.0238 15.6652 12 15.6652Z" fill="#101828"/>
<path d="M19.193 6.12613C19.193 6.8566 18.6 7.44528 17.8738 7.44528C17.1434 7.44528 16.5547 6.85231 16.5547 6.12613C16.5547 5.39566 17.1477 4.80699 17.8738 4.80699C18.6 4.80699 19.193 5.39996 19.193 6.12613Z" fill="#101828"/>
</svg>
