<svg width="24" height="24" viewBox="0 0 24 24" fill="none" xmlns="http://www.w3.org/2000/svg">
<path d="M22.7809 7.60004C22.7809 7.60004 22.566 6.08324 21.9043 5.41723C21.0664 4.54066 20.1297 4.53637 19.7 4.48481C16.6234 4.26137 12.0043 4.26137 12.0043 4.26137H11.9957C11.9957 4.26137 7.37656 4.26137 4.3 4.48481C3.87031 4.53637 2.93359 4.54066 2.0957 5.41723C1.43398 6.08324 1.22344 7.60004 1.22344 7.60004C1.22344 7.60004 1 9.38324 1 11.1621V12.8293C1 14.6082 1.21914 16.3914 1.21914 16.3914C1.21914 16.3914 1.43398 17.9082 2.09141 18.5743C2.9293 19.4508 4.0293 19.4207 4.51914 19.5153C6.28086 19.6829 12 19.7344 12 19.7344C12 19.7344 16.6234 19.7258 19.7 19.5067C20.1297 19.4551 21.0664 19.4508 21.9043 18.5743C22.566 17.9082 22.7809 16.3914 22.7809 16.3914C22.7809 16.3914 23 14.6125 23 12.8293V11.1621C23 9.38324 22.7809 7.60004 22.7809 7.60004ZM9.72695 14.8532V8.66996L15.6695 11.7723L9.72695 14.8532Z" fill="#101828"/>
</svg>
